<svg xmlns="http://www.w3.org/2000/svg" viewBox="0 0 128 128"><rect width="128" height="128" rx="32" fill="#e8e9ff"/><circle cx="100" cy="23" r="8" fill="white" opacity=".6"/><circle cx="16" cy="100" r="6" fill="white" opacity=".6"/><path d="M29 50 L27 21 L51 36 M78 36 L101 21 L99 50" fill="#8783de"/><ellipse cx="64" cy="72" rx="40" ry="37" fill="#a6a3ee"/><circle cx="48" cy="64" r="5" fill="#172b48"/><circle cx="80" cy="64" r="5" fill="#172b48"/><circle cx="49" cy="62" r="1.5" fill="white"/><circle cx="81" cy="62" r="1.5" fill="white"/><path d="M60 78 L68 78 L64 84Z" fill="#ef91ae"/><path d="M54 84 Q64 93 74 84" fill="none" stroke="#172b48" stroke-width="3.5" stroke-linecap="round"/><path d="M40 80 L20 77 M40 87 L21 91 M88 80 L108 77 M88 87 L107 91" stroke="#6763a4" stroke-width="2.5"/></svg>
